<?xml version="1.0" encoding="UTF-8"?>
<svg id="Capa_1" data-name="Capa 1" xmlns="http://www.w3.org/2000/svg" xmlns:xlink="http://www.w3.org/1999/xlink" viewBox="0 0 1920 1080">
  <defs>
    <style>
      .cls-1, .cls-2, .cls-3, .cls-4, .cls-5, .cls-6, .cls-7 {
        fill: none;
      }

      .cls-1, .cls-2, .cls-4, .cls-5, .cls-6, .cls-8, .cls-7 {
        stroke-miterlimit: 10;
      }

      .cls-1, .cls-2, .cls-4, .cls-6, .cls-8, .cls-7 {
        stroke-width: 15px;
      }

      .cls-1, .cls-5 {
        stroke: #252422;
      }

      .cls-2 {
        stroke: #fffcf2;
      }

      .cls-9 {
        fill: #fffcf2;
      }

      .cls-10 {
        fill: #ccc5b9;
      }

      .cls-11 {
        fill: #403d39;
      }

      .cls-12, .cls-8 {
        fill: #eb5e28;
      }

      .cls-13 {
        fill: #252422;
      }

      .cls-4, .cls-8 {
        stroke: #eb5e28;
      }

      .cls-6 {
        stroke: #ccc5b9;
      }

      .cls-7 {
        stroke: #403d39;
      }

      .cls-14 {
        clip-path: url(#clippath);
      }
    </style>
    <clipPath id="clippath">
      <rect class="cls-3" width="1920" height="1080"/>
    </clipPath>
  </defs>
  <g class="cls-14">
    <rect class="cls-9" width="1920" height="1080"/>
    <path class="cls-9" d="M688.82,689.31c-4.42-34.61-14.64-67.41-29.68-97.39-45.16-.5-85.69-20.22-113.82-51.36-9.92-10.98-18.29-23.38-24.79-36.85l-92.41,185.6-19.43,39.02h43.14l-146.37,293.97c25.79,7.09,52.95,10.88,80.99,10.88,168.36,0,304.85-136.48,304.85-304.85,0-13.22-.84-26.24-2.48-39.02ZM618.45,393.69l-46.26,92.9c36.36,27.97,66.22,63.96,86.95,105.33.58,0,1.17,0,1.75,0,18.18,0,35.63-3.12,51.86-8.84l-94.3-189.4ZM758.46,112.49v98.09h38.95V34.26l-38.95,78.23ZM648.04.07h-225.58l104.82,210.51h139.2l43.19-86.74L648.04.07ZM546.71,249.6l28.27,56.77c16.46-10.91,35.11-18.78,55.16-22.79l16.92-33.98h-100.35ZM.17.07v210.51h214.13L319.12.07H.17ZM.17,689.31h83.91c.18-1.4.37-2.79.57-4.18,0-.05.01-.11.02-.16.07-.53.15-1.06.23-1.58.19-1.33.4-2.66.61-3.98.06-.39.12-.77.19-1.16.06-.39.13-.77.2-1.16.13-.78.27-1.55.4-2.32.28-1.62.58-3.23.9-4.83.27-1.39.54-2.78.83-4.17.29-1.39.59-2.77.9-4.15.1-.49.21-.97.33-1.45.33-1.48.68-2.95,1.04-4.42.14-.57.28-1.13.42-1.7.5-1.99,1.01-3.97,1.55-5.94.3-1.12.61-2.23.93-3.34.24-.86.49-1.72.74-2.57.15-.5.3-1,.45-1.5.17-.59.35-1.19.54-1.78.3-.96.6-1.92.9-2.87.33-1.06.67-2.12,1.02-3.17.16-.5.33-1.01.5-1.51.16-.5.33-1.01.51-1.51.2-.59.4-1.18.61-1.77.62-1.8,1.27-3.59,1.93-5.38.21-.56.42-1.13.63-1.69.44-1.18.89-2.35,1.35-3.52,1.01-2.6,2.06-5.18,3.15-7.74.53-1.27,1.07-2.54,1.62-3.8.01-.01.02-.02.02-.04.64-1.45,1.29-2.89,1.95-4.33.65-1.43,1.32-2.87,2-4.29.51-1.07,1.03-2.14,1.56-3.21,2.03-4.15,4.17-8.26,6.4-12.3,1.13-2.07,2.29-4.12,3.47-6.16.64-1.11,1.29-2.21,1.94-3.3.4-.67.8-1.35,1.22-2.02.2-.33.4-.67.61-1.01.2-.34.41-.67.62-1,.41-.66.83-1.33,1.24-1.99.41-.67.83-1.33,1.26-1.99s.85-1.32,1.28-1.97c.65-1.02,1.32-2.04,2.01-3.05.62-.95,1.26-1.89,1.9-2.82,1.76-2.59,3.57-5.15,5.42-7.67v-189.1L.17,640.65v48.66ZM1867.72,577.71s-.01,0-.02-.01c-15.57-12.74-32.21-24.22-49.76-34.28l-97.8-196.41h0s-41.82-84-41.82-84c-6.53,1.92-13.44,2.94-20.59,2.94-3.76,0-7.46-.28-11.07-.83l57.13,114.74-57.41,115.3c-3.57-.11-7.15-.16-10.75-.16-79.49,0-153.09,25.28-213.18,68.25l62.76,126.06h434.79v-6.58l-52.28-105.02ZM1517.46,754.08l-12.82-25.75-19.43-39.02h-173.44c-6.73,12.58-12.74,25.61-17.98,39.02-16.2,41.4-25.09,86.47-25.09,133.61,0,81.64,26.66,157.06,71.77,218.01h14.73l56.71-113.89,83.51-167.72,140.21,281.61h44.09l-162.26-325.87ZM1266.28,249.6l-.42-.84-.42.84-21.62,43.42-21.62-43.42-19.43-39.02L1097.96.07h-261.52v689.24h475.33c20.35-38.12,47.24-72.22,79.17-100.81,6.77-6.06,13.76-11.88,20.97-17.42v-29l-145.63-292.48ZM1704.2,249.32c-.12.1-.23.19-.35.28h.49l-.14-.28ZM1704.34,249.6l32.15,64.57,32.15-64.57h-64.3ZM1547.4.07l66.65,133.85c7.78-5.81,16.76-10.09,26.5-12.42,5.51-1.34,11.26-2.04,17.18-2.04,40.45,0,73.24,32.8,73.24,73.25,0,.56-.01,1.12-.02,1.67-.01.21-.01.42-.02.63,0,.13,0,.25,0,.38-.01.47-.03.93-.06,1.39-.02.35-.04.71-.07,1.06,0,.14-.02.28-.03.42-.03.35-.05.7-.08,1.04,0,.07,0,.13-.02.2-.01.1-.02.21-.04.31-.01.08-.01.16-.02.24-.02.26-.05.52-.08.78,0,.06,0,.11-.02.17-.02.16-.04.33-.06.49-.04.4-.09.79-.15,1.18-.03.27-.07.54-.11.81-.05.38-.11.76-.18,1.13l-.15.9c0,.05,0,.09-.02.14-.02.07-.03.15-.04.22,0,.03,0,.06-.02.09-.03.18-.07.35-.1.52-.06.32-.12.65-.19.97-.07.33-.14.65-.21.97-.15.73-.32,1.45-.51,2.16h59.31L1892.89.07h-345.49ZM1018.86,744.83l-112.78,226.52h0s-54.08,108.6-54.08,108.6h333.72l-166.86-335.12Z"/>
    <polyline class="cls-4" points="1857.87 707.05 1765.17 520.85 1765.16 520.84 1686.13 362.12"/>
    <path class="cls-10" d="M1703.79,379.86l-57.41,115.3c-3.57-.11-7.15-.16-10.75-.16-79.49,0-153.09,25.28-213.18,68.25l-10.54-21.17-145.63-292.48-.42-.84,19.01-38.18L1389.69.07h157.71l66.65,133.85c-8.55,6.36-15.67,14.54-20.77,23.98h0c-5.61,10.36-8.79,22.21-8.79,34.81,0,.45,0,.91.02,1.36,0,.3,0,.61.02.91v.09c0,.55.04,1.1.07,1.65.02.33.04.67.06,1,0,.04,0,.07.01.11.03.45.06.89.1,1.34.01.13.03.26.04.39.06.73.14,1.45.23,2.17.05.37.09.75.15,1.12.06.44.12.89.19,1.33.06.39.13.78.2,1.17.11.67.24,1.33.38,1.99.07.42.16.84.26,1.25.05.26.11.53.17.79.08.33.16.66.24,1,.02.07.03.13.05.2.06.25.13.5.19.75.11.41.23.82.34,1.23.15.53.3,1.05.46,1.57.17.57.35,1.13.54,1.69.15.47.32.94.48,1.41.18.51.37,1.02.56,1.52.39,1.01.79,2.01,1.22,3,.42.99.88,1.97,1.35,2.94.23.48.47.96.72,1.44.24.47.49.95.75,1.42.25.47.51.93.78,1.39h0c.33.58.65,1.14.99,1.69.05.09.11.17.16.26.31.52.63,1.03.97,1.54.22.35.45.7.69,1.05.27.4.54.81.82,1.2.27.39.54.77.82,1.14.27.38.55.76.83,1.13.03.03.06.06.08.1.59.78,1.2,1.54,1.82,2.29.31.37.62.75.94,1.11.18.21.36.42.54.62.08.09.15.18.23.27.55.61,1.1,1.21,1.66,1.8.56.6,1.13,1.18,1.72,1.75.29.29.58.58.88.85.7.67,1.42,1.33,2.15,1.97.18.17.36.33.55.48.19.17.37.33.56.48.37.31.74.62,1.12.93.62.5,1.24.99,1.88,1.47.31.23.61.47.92.69.31.23.62.46.93.68l.18.12c.56.4,1.13.79,1.71,1.17.79.53,1.59,1.04,2.39,1.53.59.36,1.19.72,1.8,1.06.25.14.51.29.76.43.36.2.72.4,1.09.59.23.13.46.25.69.37.07.04.15.08.22.11.36.2.73.38,1.1.56.03.02.07.03.1.05.27.14.55.27.83.4.48.23.96.45,1.44.67.49.22.98.44,1.47.64.33.15.66.29.99.41.09.04.19.08.28.12,1.06.43,2.13.83,3.2,1.2.35.13.69.24,1.04.35.55.19,1.1.37,1.66.53.06.02.13.05.2.06.57.18,1.14.35,1.72.5.39.12.79.22,1.19.32.61.16,1.22.31,1.84.45.57.14,1.15.26,1.73.38.04,0,.09.02.13.03.37.07.74.14,1.12.21.81.16,1.63.3,2.45.42l57.13,114.74Z"/>
    <path class="cls-13" d="M1867.72,577.71s-.01,0-.02-.01c-15.57-12.74-32.21-24.22-49.76-34.28-13.87-7.96-28.31-15.03-43.24-21.15h-.01c-39.75-16.29-83-25.81-128.31-27.11-3.57-.11-7.15-.16-10.75-.16-79.49,0-153.09,25.28-213.18,68.25l62.76,126.06h434.79v-6.58l-52.28-105.02ZM1311.77,689.31c-6.73,12.58-12.74,25.61-17.98,39.02-16.2,41.4-25.09,86.47-25.09,133.61,0,81.64,26.66,157.06,71.77,218.01h14.73l56.71-113.89,83.51-167.72,140.21,281.61h44.09l-162.26-325.87-12.82-25.75-19.43-39.02h-173.44Z"/>
    <polyline class="cls-1" points="906.08 954.34 972.67 1088.07 972.69 1088.13"/>
    <line class="cls-5" x1="422.46" y1=".07" x2="422.43" y2="0"/>
    <line class="cls-5" x1="1097.96" y1=".07" x2="1097.9" y2="-.05"/>
    <line class="cls-5" x1="1679.77" y1="1080.06" x2="1679.72" y2="1079.95"/>
    <line class="cls-5" x1="1142.03" y1=".07" x2="1142.03" y2=".06"/>
    <line class="cls-5" x1="1922.25" y1="818.62" x2="1920" y2="814.1"/>
    <line class="cls-5" x1="1954.96" y1="818.62" x2="1920" y2="748.4"/>
    <line class="cls-5" x1="1547.4" y1=".07" x2="1547.4" y2=".06"/>
    <line class="cls-5" x1="1987.66" y1="818.62" x2="1920" y2="682.73"/>
    <line class="cls-7" x1="1384.92" y1="-6.83" x2="1028.61" y2="708.82"/>
    <line class="cls-5" x1="852" y1="1079.95" x2="851.98" y2="1080"/>
    <line class="cls-5" x1="1389.72" y1="0" x2="1389.69" y2=".07"/>
    <line class="cls-5" x1=".17" y1="640.65" x2="0" y2="640.99"/>
    <line class="cls-5" x1="319.12" y1=".07" x2="319.12" y2=".06"/>
    <polyline class="cls-7" points="548.08 518.69 451.87 711.94 426.63 762.63"/>
    <line class="cls-5" x1="814.49" y1="-.05" x2="814.43" y2=".07"/>
    <polyline class="cls-1" points="836.44 249.6 1026.41 249.6 1159.22 249.6 1222.2 249.6 1265.44 249.6 1266.28 249.6 1411.91 249.6 1611.6 249.6 1671.64 249.6"/>
    <line class="cls-5" x1="1916.01" y1="249.6" x2="1768.64" y2="249.6"/>
    <line class="cls-5" x1=".17" y1="249.6" x2="-3.99" y2="249.6"/>
    <polyline class="cls-6" points="836.44 210.58 1071.06 210.58 1114.56 210.58 1202.77 210.58 1284.87 210.58 1411.91 210.58 1586.68 210.58 1652.22 210.58"/>
    <line class="cls-5" x1="1916.01" y1="210.58" x2="1788.07" y2="210.58"/>
    <path class="cls-11" d="M906.08,971.35h0s-54.08,108.6-54.08,108.6H276.76l28.7-57.65c25.79,7.09,52.95,10.88,80.99,10.88,168.36,0,304.85-136.48,304.85-304.85,0-13.22-.84-26.24-2.48-39.02-4.42-34.61-14.64-67.41-29.68-97.39.58,0,1.17,0,1.75,0,18.18,0,35.63-3.12,51.86-8.84l45.71,91.8,7.18,14.42,19.43,39.02,12.34,24.78,39.03,78.38,69.64,139.86Z"/>
    <line class="cls-5" x1=".17" y1="210.58" x2="-3.99" y2="210.58"/>
    <polyline class="cls-4" points="758.46 640.66 758.46 1079.94 758.46 1080"/>
    <line class="cls-5" x1="758.46" y1=".07" x2="758.46" y2="0"/>
    <polyline class="cls-4" points="797.41 1080 797.41 1079.94 797.41 728.33"/>
    <line class="cls-5" x1="797.41" y1=".07" x2="797.41" y2="0"/>
    <polyline class="cls-4" points="836.44 1080 836.44 1079.94 836.44 808.15"/>
    <line class="cls-5" x1="836.44" y1=".07" x2="836.44" y2="0"/>
    <polyline class="cls-6" points="1536.51 728.33 1482.35 728.33 1277.45 728.33"/>
    <line class="cls-1" x1="691.3" y1="720.83" x2="405.83" y2="720.83"/>
    <polyline class="cls-1" points="413.11 689.31 458.73 689.31 688.82 689.31"/>
    <line class="cls-5" x1="1355.2" y1="1079.95" x2="1355.15" y2="1080.06"/>
    <line class="cls-5" x1="1892.89" y1=".07" x2="1892.89" y2=".06"/>
    <line class="cls-5" x1="771.36" y1="-.05" x2="771.3" y2=".07"/>
    <circle class="cls-12" cx="1092.82" cy="280.54" r="73.24"/>
    <path class="cls-5" d="M84.43,770c.44,3.23.93,6.44,1.47,9.64-.54-3.19-1.04-6.41-1.47-9.64Z"/>
    <path class="cls-5" d="M691.3,728.33c0,168.37-136.49,304.85-304.85,304.85-28.04,0-55.2-3.79-80.99-10.88l146.37-293.97h-43.14l19.43-39.02,92.41-185.6c6.5,13.47,14.87,25.87,24.79,36.85,28.13,31.14,68.66,50.86,113.82,51.36,15.04,29.98,25.26,62.78,29.68,97.39,1.64,12.78,2.48,25.8,2.48,39.02Z"/>
    <path class="cls-5" d="M712.75,583.09c-16.23,5.72-33.68,8.84-51.86,8.84-.58,0-1.17,0-1.75,0-20.73-41.37-50.59-77.36-86.95-105.33l46.26-92.9,94.3,189.4Z"/>
    <polygon class="cls-10" points="991.22 689.31 836.44 689.31 836.44 378.45 991.22 689.31"/>
    <line class="cls-5" x1="1185.77" y1="1080.06" x2="1185.72" y2="1079.95"/>
    <line class="cls-5" x1="648.04" y1=".07" x2="648.04" y2=".06"/>
    <polygon class="cls-13" points="1389.69 .07 1265.86 248.76 1243.82 293.02 1097.96 .07 1389.69 .07"/>
    <polygon class="cls-11" points="1635.63 1079.95 1355.2 1079.95 1495.42 798.34 1635.63 1079.95"/>
    <path class="cls-12" d="M1730.97,192.71c0,.56-.01,1.12-.02,1.67-.01.21-.01.42-.02.63,0,.13,0,.25,0,.38-.01.47-.03.93-.06,1.39-.02.35-.04.71-.07,1.06,0,.14-.02.28-.03.42-.03.35-.05.7-.08,1.04,0,.07,0,.13-.02.2-.01.1-.02.21-.04.31-.01.08-.01.16-.02.24-.02.26-.05.52-.08.78,0,.06,0,.11-.02.17-.02.16-.04.33-.06.49-.04.4-.09.79-.15,1.18-.03.27-.07.54-.11.81-.05.38-.11.76-.18,1.13l-.15.9c0,.05,0,.09-.02.14-.02.07-.03.15-.04.22,0,.03,0,.06-.02.09-.03.18-.07.35-.1.52-.06.32-.12.65-.19.97-.07.33-.14.65-.21.97-.15.73-.32,1.45-.51,2.16h-76.54l-38.17-76.66c7.78-5.81,16.76-10.09,26.5-12.42,5.51-1.34,11.26-2.04,17.18-2.04,40.45,0,73.24,32.8,73.24,73.25Z"/>
    <polygon class="cls-10" points="140.05 210.58 140.05 359.71 .17 640.65 .17 210.58 140.05 210.58"/>
    <path class="cls-5" d="M408.69,728.33l-140.03,281.25c-1.04-.44-2.08-.88-3.11-1.33-.99-.42-1.98-.86-2.97-1.3-.05-.02-.11-.04-.16-.07-1.02-.45-2.03-.91-3.04-1.38-1.15-.52-2.3-1.06-3.44-1.6-.89-.42-1.78-.85-2.66-1.28-3.59-1.74-7.14-3.55-10.64-5.44-.61-.32-1.22-.65-1.82-.98-.98-.53-1.95-1.07-2.93-1.62-.81-.45-1.62-.9-2.43-1.37-1.79-1.02-3.57-2.06-5.33-3.12-.57-.33-1.14-.68-1.71-1.03-.79-.47-1.57-.95-2.36-1.44-.57-.35-1.13-.7-1.69-1.06-.78-.49-1.56-.98-2.33-1.48-1.28-.82-2.55-1.65-3.82-2.49-.74-.49-1.48-.98-2.21-1.48-1.06-.71-2.11-1.43-3.16-2.16-1.16-.8-2.31-1.61-3.46-2.44-.73-.52-1.46-1.04-2.18-1.57-.85-.61-1.69-1.23-2.52-1.86-2.07-1.53-4.11-3.09-6.13-4.68-.4-.31-.8-.62-1.2-.94-.27-.21-.54-.43-.81-.64-.83-.66-1.66-1.33-2.48-2-.74-.6-1.48-1.21-2.22-1.83-.3-.24-.6-.49-.89-.74-1.34-1.12-2.67-2.25-3.98-3.39-.37-.32-.74-.64-1.11-.97-.63-.54-1.25-1.09-1.87-1.65-.73-.65-1.47-1.31-2.2-1.97-.92-.82-1.83-1.66-2.73-2.51-.16-.14-.32-.29-.48-.44-.74-.68-1.47-1.37-2.2-2.07-1.77-1.69-3.53-3.4-5.26-5.13-.8-.79-1.6-1.59-2.39-2.4-1.28-1.3-2.55-2.62-3.81-3.96-.77-.81-1.53-1.62-2.28-2.44-1.2-1.29-2.37-2.58-3.54-3.89-.82-.91-1.63-1.83-2.43-2.75-1.33-1.52-2.65-3.06-3.94-4.61-.71-.84-1.4-1.67-2.09-2.52-.09-.1-.17-.2-.26-.31-.66-.81-1.32-1.62-1.97-2.44-.14-.17-.27-.33-.39-.49-.37-.45-.73-.91-1.08-1.36-.29-.36-.58-.73-.86-1.1-.69-.87-1.37-1.75-2.04-2.63-.72-.94-1.43-1.88-2.13-2.83-.63-.84-1.26-1.68-1.87-2.53-.89-1.22-1.78-2.45-2.64-3.69-.54-.75-1.07-1.51-1.59-2.26-.95-1.36-1.89-2.73-2.8-4.11-.37-.54-.73-1.08-1.08-1.62-.39-.57-.77-1.15-1.14-1.73-.51-.79-1.03-1.58-1.53-2.38-.51-.79-1.02-1.59-1.51-2.39-.65-1.04-1.29-2.08-1.92-3.12-.64-1.04-1.27-2.09-1.89-3.14-.5-.84-.99-1.68-1.48-2.53-.5-.85-.99-1.7-1.46-2.55-.23-.39-.45-.78-.66-1.17-1.53-2.71-3.01-5.45-4.44-8.21-.17-.32-.34-.64-.5-.96-.9-1.74-1.79-3.5-2.65-5.26-.44-.88-.87-1.76-1.29-2.65-.85-1.77-1.69-3.55-2.5-5.34-.4-.87-.79-1.74-1.18-2.62-.41-.91-.81-1.83-1.21-2.75-.29-.67-.58-1.34-.86-2.01-.41-.97-.82-1.94-1.22-2.92-.41-.97-.8-1.95-1.19-2.93-.37-.91-.73-1.82-1.08-2.74-.42-1.06-.82-2.12-1.22-3.18-.35-.92-.69-1.85-1.03-2.78-.04-.1-.07-.19-.11-.29-.45-1.23-.89-2.47-1.32-3.71-.4-1.14-.79-2.28-1.17-3.42-.55-1.63-1.08-3.27-1.6-4.91-.42-1.32-.83-2.64-1.23-3.97-.15-.51-.3-1.01-.45-1.51-.2-.68-.4-1.36-.6-2.05-.35-1.2-.68-2.4-1.01-3.6-.2-.72-.4-1.45-.59-2.18-.26-.97-.51-1.94-.76-2.91-.53-2.03-1.03-4.07-1.5-6.12-.17-.71-.34-1.42-.49-2.14-.17-.71-.33-1.43-.48-2.14-.32-1.43-.62-2.87-.92-4.3-.2-.99-.4-1.99-.59-2.98-.07-.38-.15-.76-.22-1.14-.22-1.17-.43-2.34-.64-3.51-.07-.38-.14-.76-.2-1.14-.07-.38-.14-.77-.2-1.16-.54-3.2-1.03-6.41-1.47-9.64-.15-1.05-.29-2.1-.42-3.16-.2-1.59-.39-3.18-.56-4.78-.08-.71-.16-1.42-.23-2.13-.11-1.03-.21-2.06-.3-3.1-.09-.93-.17-1.87-.25-2.8-.07-.85-.14-1.69-.2-2.54-.11-1.47-.21-2.94-.3-4.42-.05-.76-.09-1.52-.13-2.29-.03-.56-.06-1.13-.09-1.7-.02-.49-.05-.99-.07-1.49-.01-.29-.02-.57-.03-.86-.03-.57-.05-1.13-.06-1.7-.03-.65-.05-1.29-.06-1.94-.03-.82-.05-1.64-.06-2.46-.02-.6-.03-1.2-.03-1.8-.02-.69-.03-1.39-.03-2.09-.01-.8-.01-1.6-.01-2.41h327.09Z"/>
    <path class="cls-10" d="M1441.13,689.31h-141.56c22.27-41.71,51.7-79.03,86.64-110.32l22.95,46.09,31.98,64.23Z"/>
    <path class="cls-13" d="M1768.64,249.6h-64.3l-.14-.28c-.12.1-.23.19-.35.28h.49l32.15,64.57-16.35,32.83-41.82-83.99-6.68-13.41-19.42-39.02h135.85l-19.43,39.02Z"/>
    <polygon class="cls-12" points="797.41 .07 797.41 34.26 758.46 112.49 758.46 .07 797.41 .07"/>
    <polygon class="cls-11" points="758.46 .07 758.46 249.6 690.19 249.6 709.62 210.58 731.24 167.16 709.67 123.84 648.04 .07 758.46 .07"/>
    <polygon class="cls-10" points="797.41 249.6 797.41 689.31 765.64 689.31 758.46 674.89 712.75 583.09 618.45 393.69 674.49 281.13 690.19 249.6 797.41 249.6"/>
    <polygon class="cls-11" points="214.3 210.58 194.87 249.6 179.07 281.34 140.05 359.71 140.05 210.58 214.3 210.58"/>
    <path class="cls-13" d="M731.24,167.16l-21.62,43.42-19.43,39.02-15.7,31.53c-4.48-.39-9.02-.59-13.6-.59-10.53,0-20.81,1.04-30.75,3.04l16.92-33.98h-100.35l-19.43-39.02h139.2l43.19-86.74,21.57,43.32Z"/>
    <rect class="cls-12" x="758.46" y="210.58" width="38.95" height="39.02"/>
    <rect class="cls-13" x="797.41" y=".07" width="39.03" height="689.24"/>
    <polygon class="cls-12" points="1018.86 744.83 906.08 971.35 836.44 831.49 797.41 753.11 785.07 728.33 765.64 689.31 991.22 689.31 1010.64 728.33 1018.86 744.83"/>
    <path class="cls-13" d="M1311.77,689.31c-6.73,12.58-12.74,25.61-17.98,39.02h-283.15l-19.42-39.02h320.55Z"/>
    <polygon class="cls-8" points="463.36 720.83 316.99 1014.8 288.29 1072.45 245.15 1072.45 280.19 1002.08 420.22 720.83 463.36 720.83"/>
    <path class="cls-5" d="M119.08,581.79c1.13-2.07,2.28-4.13,3.47-6.16-1.18,2.04-2.34,4.09-3.47,6.16Z"/>
    <path class="cls-13" d="M520.53,503.71l-92.41,185.6-19.43,39.02h-229.62v-223.43c1.71-1.6,3.44-3.18,5.2-4.73,2.38-2.11,4.79-4.18,7.24-6.21,1.87-1.57,3.76-3.11,5.68-4.62.13-.11.26-.22.4-.32,0-.01.01-.01.02-.01,1.62-1.28,3.26-2.55,4.91-3.81,1.57-1.19,3.16-2.37,4.77-3.53.47-.35.94-.69,1.41-1.02,1.22-.89,2.45-1.76,3.7-2.62.67-.47,1.34-.93,2.01-1.39.01,0,.01-.02.02-.02.61-.42,1.22-.83,1.83-1.24,2.61-1.77,5.25-3.49,7.92-5.16,1.15-.73,2.31-1.45,3.47-2.16,3.36-2.06,6.77-4.05,10.22-5.97.74-.42,1.48-.83,2.23-1.24,1.8-.99,3.61-1.96,5.43-2.91.95-.5,1.9-.99,2.86-1.47.92-.47,1.84-.94,2.77-1.39.87-.44,1.76-.88,2.64-1.3.76-.37,1.52-.74,2.29-1.1.19-.09.38-.18.57-.27,1.04-.49,2.09-.97,3.14-1.45,2.25-1.04,4.51-2.04,6.79-3.01.51-.22,1.02-.44,1.53-.65.8-.34,1.59-.67,2.39-.99,1.78-.74,3.57-1.46,5.36-2.15.3-.12.6-.24.9-.35,1.72-.66,3.44-1.31,5.18-1.94.31-.12.62-.23.92-.34,1.08-.39,2.16-.78,3.25-1.15.96-.34,1.93-.67,2.89-.99.85-.29,1.7-.57,2.55-.85.85-.28,1.7-.55,2.55-.82.85-.27,1.71-.54,2.57-.8.85-.27,1.71-.53,2.57-.78,1.1-.33,2.21-.66,3.32-.97,1.17-.33,2.34-.66,3.51-.98,1.86-.51,3.72-1,5.59-1.46.57-.15,1.14-.29,1.71-.43.14-.04.29-.08.43-.1,1.42-.36,2.84-.69,4.26-1.02.18-.04.36-.08.54-.12.52-.12,1.03-.24,1.55-.35,1.75-.39,3.5-.76,5.25-1.11.91-.19,1.83-.38,2.75-.55.76-.15,1.52-.29,2.28-.43.65-.13,1.31-.25,1.97-.36.44-.08.88-.16,1.33-.24,3.27-.57,6.55-1.09,9.85-1.55,2.25-.32,4.51-.61,6.78-.88,2.43-.28,4.88-.54,7.33-.77,1.18-.11,2.36-.22,3.55-.31,2.37-.2,4.76-.36,7.15-.5.73-.05,1.46-.09,2.19-.12.18,0,.37-.02.55-.02.4-.03.8-.05,1.21-.06.3-.02.6-.04.9-.04.43-.03.87-.05,1.3-.06,1.47-.06,2.94-.1,4.41-.14.94-.02,1.87-.04,2.81-.05.65-.01,1.29-.02,1.94-.02.91-.02,1.83-.02,2.74-.02,42.28,0,82.55,8.61,119.16,24.17h0c1.45,19.97,6.66,38.89,14.92,56.06Z"/>
    <path class="cls-11" d="M268.66,1009.58l-35.04,70.37H.17v-390.64h83.91c-1.64,12.78-2.48,25.8-2.48,39.02,0,.81,0,1.61.01,2.41,0,.7.01,1.4.03,2.09,0,.6.01,1.2.03,1.8.01.82.03,1.64.06,2.46.01.65.03,1.29.06,1.94.01.57.03,1.13.06,1.7.01.29.02.57.03.86.02.5.05,1,.07,1.49.03.57.06,1.14.09,1.7.04.77.08,1.53.13,2.29.09,1.48.19,2.95.3,4.42.06.85.13,1.69.2,2.54.08.93.16,1.87.25,2.8.09,1.04.19,2.07.3,3.1.07.71.15,1.42.23,2.13.17,1.6.36,3.19.56,4.78.13,1.06.27,2.11.42,3.16.43,3.23.93,6.45,1.47,9.64.06.39.13.78.2,1.16.06.38.13.76.2,1.14.2,1.18.42,2.35.64,3.51.07.38.15.76.22,1.14.19.99.39,1.99.59,2.98.3,1.43.6,2.87.92,4.3.15.71.31,1.43.48,2.14.15.72.32,1.43.49,2.14.47,2.05.97,4.09,1.5,6.12.24.97.5,1.94.76,2.91.19.73.39,1.46.59,2.18.33,1.2.66,2.4,1.01,3.6.2.69.4,1.37.6,2.05.15.5.3,1,.45,1.51.4,1.33.81,2.65,1.23,3.97.52,1.64,1.05,3.28,1.6,4.91.38,1.14.77,2.28,1.17,3.42.43,1.24.87,2.48,1.32,3.71.04.1.07.19.11.29.34.93.68,1.86,1.03,2.78.4,1.06.8,2.12,1.22,3.18.35.92.71,1.83,1.08,2.74.39.98.78,1.96,1.19,2.93.4.98.8,1.95,1.22,2.92.28.67.57,1.34.86,2.01.4.92.8,1.84,1.21,2.75.39.88.78,1.75,1.18,2.62.81,1.79,1.65,3.57,2.5,5.34.42.89.85,1.77,1.29,2.65.86,1.76,1.75,3.52,2.65,5.26.16.32.33.64.5.96,1.43,2.76,2.91,5.5,4.44,8.21.21.39.43.78.66,1.17.47.85.96,1.7,1.46,2.55.48.84.98,1.69,1.48,2.53.62,1.05,1.25,2.1,1.89,3.14.63,1.04,1.27,2.08,1.92,3.12.49.8,1,1.6,1.51,2.39.5.8,1.02,1.59,1.53,2.38.37.58.75,1.16,1.14,1.73.35.54.71,1.08,1.08,1.62.91,1.38,1.85,2.75,2.8,4.11.52.75,1.05,1.51,1.59,2.26.86,1.24,1.75,2.47,2.64,3.69.61.85,1.24,1.69,1.87,2.53.7.95,1.41,1.89,2.13,2.83.67.88,1.35,1.76,2.04,2.63.28.37.57.74.86,1.1.35.45.71.91,1.08,1.36.12.16.25.32.39.49.65.82,1.31,1.63,1.97,2.44.09.11.17.21.26.31.69.85,1.38,1.68,2.09,2.52,1.29,1.55,2.61,3.09,3.94,4.61.8.92,1.61,1.84,2.43,2.75,1.17,1.31,2.34,2.6,3.54,3.89.75.82,1.51,1.63,2.28,2.44,1.26,1.34,2.53,2.66,3.81,3.96.79.81,1.59,1.61,2.39,2.4,1.73,1.74,3.49,3.45,5.26,5.13.73.7,1.46,1.39,2.2,2.07.16.15.32.3.48.44.9.85,1.81,1.69,2.73,2.51.73.67,1.46,1.33,2.2,1.97.62.56,1.24,1.11,1.87,1.65.37.33.74.65,1.11.97,1.31,1.14,2.64,2.27,3.98,3.39.29.25.59.5.89.74.74.62,1.48,1.23,2.22,1.83.82.67,1.65,1.34,2.48,2,.27.21.54.43.81.64.4.32.8.63,1.2.94,2.02,1.59,4.06,3.15,6.13,4.68.83.63,1.67,1.25,2.52,1.86.72.53,1.45,1.05,2.18,1.57,1.15.83,2.3,1.64,3.46,2.44,1.05.73,2.1,1.45,3.16,2.16.73.5,1.47.99,2.21,1.48,1.27.84,2.54,1.67,3.82,2.49.77.5,1.55.99,2.33,1.48.56.36,1.12.71,1.69,1.06.79.49,1.57.97,2.36,1.44.57.35,1.14.7,1.71,1.03,1.76,1.06,3.54,2.1,5.33,3.12.81.47,1.62.92,2.43,1.37.98.55,1.95,1.09,2.93,1.62.61.34,1.21.66,1.82.98,3.5,1.89,7.05,3.7,10.64,5.44.88.43,1.77.86,2.66,1.28,1.14.54,2.29,1.08,3.44,1.6,1.01.47,2.02.93,3.04,1.38.05.03.11.05.16.07.99.44,1.98.88,2.97,1.3,1.03.45,2.07.89,3.11,1.33Z"/>
    <path class="cls-10" d="M659.14,591.92c-45.16-.5-85.69-20.22-113.82-51.36-9.92-10.98-18.29-23.38-24.79-36.85-8.26-17.17-13.47-36.09-14.92-56.05,11.82,5.02,23.27,10.77,34.27,17.19,11.25,6.56,22.04,13.83,32.31,21.74,36.36,27.97,66.22,63.96,86.95,105.33Z"/>
    <path class="cls-11" d="M674.49,281.13l-56.04,112.56-46.26,92.9c-10.27-7.91-21.06-15.18-32.31-21.74-11-6.42-22.45-12.17-34.27-17.19h0c-.27-3.78-.41-7.58-.41-11.42,0-54.23,27.73-101.99,69.78-129.87,16.46-10.91,35.11-18.78,55.16-22.79,9.94-2,20.22-3.04,30.75-3.04,4.58,0,9.12.2,13.6.59Z"/>
    <path class="cls-12" d="M1340.47,1079.95h-154.75l-166.86-335.12-8.22-16.5h283.15c-16.2,41.4-25.09,86.47-25.09,133.61,0,81.64,26.66,157.06,71.77,218.01Z"/>
    <polygon class="cls-12" points="1549.71 689.31 1530.28 728.33 1517.46 754.08 1504.64 728.33 1485.21 689.31 1549.71 689.31"/>
    <path class="cls-11" d="M1920,.07v629.96c-15.61-19.14-33.15-36.68-52.28-52.32t-.02-.01c-15.57-12.74-32.21-24.22-49.76-34.28l-97.8-196.41h0s16.35-32.84,16.35-32.84l32.15-64.57,19.43-39.02L1892.89.07h27.11Z"/>
    <path class="cls-11" d="M1678.32,263.01c-6.53,1.92-13.44,2.94-20.59,2.94-3.76,0-7.46-.28-11.07-.83-.82-.12-1.64-.26-2.45-.42-.38-.07-.75-.14-1.12-.21-.04,0-.09-.02-.13-.03-.58-.12-1.16-.24-1.73-.38-.62-.14-1.23-.29-1.84-.45-.4-.1-.8-.21-1.19-.32-1.21-.33-2.4-.69-3.58-1.09-.35-.11-.69-.23-1.04-.35-1.07-.37-2.14-.77-3.2-1.2-.43-.17-.85-.35-1.27-.53-.49-.21-.98-.42-1.47-.64-.48-.22-.96-.44-1.44-.67-.28-.13-.56-.26-.83-.4-.03-.02-.07-.03-.1-.05-.37-.18-.74-.36-1.1-.56-.07-.03-.15-.07-.22-.11-.23-.12-.46-.24-.69-.37-.37-.19-.73-.39-1.09-.59-.25-.14-.51-.29-.76-.43-.61-.34-1.21-.7-1.8-1.06-.8-.49-1.6-1-2.39-1.53-.58-.38-1.15-.77-1.71-1.17l-.18-.12c-.31-.22-.62-.45-.93-.68-.31-.22-.61-.46-.92-.69-.64-.48-1.26-.97-1.88-1.47-.38-.31-.75-.62-1.12-.93-.19-.16-.38-.32-.56-.48-.19-.15-.37-.31-.55-.48-.73-.64-1.45-1.3-2.15-1.97-.3-.28-.59-.56-.88-.85-.59-.57-1.16-1.15-1.72-1.75-.56-.59-1.11-1.19-1.66-1.8-.08-.09-.15-.18-.23-.27-.18-.2-.36-.41-.54-.62-.32-.36-.63-.74-.94-1.11-.62-.75-1.23-1.52-1.82-2.29-.02-.04-.05-.07-.08-.1-.28-.37-.56-.75-.83-1.13-.28-.38-.55-.76-.82-1.14-.28-.39-.55-.8-.82-1.2-.24-.35-.47-.7-.69-1.05-.33-.51-.65-1.02-.97-1.54-.05-.09-.11-.17-.16-.26-.34-.55-.66-1.11-.99-1.68h0c-.27-.47-.53-.93-.78-1.4-.26-.47-.51-.95-.75-1.42-.25-.48-.49-.96-.72-1.44-.47-.97-.93-1.95-1.35-2.94-.43-.99-.83-1.99-1.22-3-.19-.5-.38-1.01-.56-1.52-.16-.47-.33-.94-.48-1.41-.19-.56-.37-1.12-.54-1.69-.16-.52-.31-1.04-.46-1.57-.11-.41-.23-.82-.34-1.23-.06-.25-.13-.5-.19-.75-.02-.07-.03-.13-.05-.2-.08-.34-.16-.67-.24-1-.06-.26-.12-.53-.17-.79-.1-.41-.19-.83-.26-1.25-.14-.66-.27-1.32-.38-1.99-.07-.39-.14-.78-.2-1.17-.07-.44-.13-.89-.19-1.33-.06-.37-.1-.75-.15-1.12-.09-.72-.17-1.44-.23-2.17,0-.13-.03-.26-.04-.39-.04-.45-.07-.89-.1-1.34-.01-.04-.01-.07-.01-.11-.02-.33-.04-.67-.06-1-.03-.55-.06-1.1-.07-1.65v-.09c-.01-.3-.02-.61-.02-.91-.02-.45-.02-.91-.02-1.36,0-12.6,3.18-24.45,8.79-34.8h0c5.1-9.45,12.22-17.63,20.77-23.99l38.17,76.66,19.42,39.02,6.68,13.41Z"/>
    <polyline class="cls-4" points="1411.91 1080 1411.91 1079.95 1411.91 966.06 1411.91 728.33 1411.91 689.31"/>
    <polyline class="cls-2" points="1411.91 0 1411.91 .09 1411.91 267.77 1411.91 317.39 1411.91 689.31"/>
    <path class="cls-12" d="M505.2,436.24c0,3.84.14,7.64.41,11.41-36.61-15.56-76.88-24.17-119.16-24.17-.91,0-1.83,0-2.74.02-.65,0-1.29.01-1.94.02-.94,0-1.87.03-2.81.05-1.47.04-2.94.08-4.41.14-.43,0-.87.03-1.3.06-.3,0-.6.02-.9.04-.41,0-.81.03-1.21.06-.18,0-.37.01-.55.02-.74.03-1.46.07-2.19.12-2.39.13-4.77.3-7.15.5-1.19.09-2.37.2-3.55.31-2.45.23-4.9.49-7.33.77-2.27.27-4.53.56-6.78.88-3.3.46-6.58.98-9.85,1.55-.45.08-.89.16-1.33.24-.66.11-1.32.23-1.97.36-.76.14-1.52.28-2.28.43-.92.17-1.84.36-2.75.55-1.75.35-3.5.72-5.25,1.11-.52.11-1.03.23-1.55.35-.18.04-.36.08-.54.12-1.42.33-2.84.66-4.26,1.02-.14.02-.29.06-.43.1-.57.14-1.14.28-1.71.43-1.87.46-3.73.95-5.59,1.46-1.17.32-2.34.64-3.51.98-1.11.31-2.22.63-3.32.97-.86.25-1.72.51-2.57.78-.86.26-1.72.53-2.57.8-.85.27-1.7.54-2.55.82-.85.28-1.7.56-2.55.85-.96.32-1.93.65-2.89.99-1.09.37-2.17.76-3.25,1.15-.3.11-.61.22-.92.34-1.74.63-3.46,1.28-5.18,1.94-.3.11-.6.23-.9.35-1.79.69-3.58,1.41-5.36,2.15-.8.32-1.59.65-2.39.99-.51.21-1.02.43-1.53.65-2.28.97-4.54,1.97-6.79,3.01-1.05.48-2.1.96-3.14,1.45-.19.09-.38.18-.57.27-.77.36-1.53.73-2.29,1.1-.88.42-1.77.86-2.64,1.3-.93.45-1.85.91-2.77,1.39-.96.48-1.91.97-2.86,1.47-1.82.95-3.63,1.92-5.43,2.91-.75.4-1.49.82-2.23,1.24-3.45,1.92-6.86,3.91-10.22,5.97-1.16.71-2.32,1.43-3.47,2.16-2.67,1.67-5.31,3.39-7.92,5.16-.61.41-1.22.82-1.83,1.24-.01,0-.01.01-.02.02-.67.46-1.34.92-2.01,1.39-1.25.86-2.48,1.73-3.7,2.62-.47.33-.94.67-1.41,1.02-1.61,1.16-3.2,2.34-4.77,3.53-1.65,1.25-3.29,2.52-4.91,3.81-.01,0-.02,0-.02.01-.14.1-.27.21-.4.32-1.92,1.51-3.81,3.05-5.68,4.62-2.45,2.03-4.86,4.1-7.24,6.21-1.76,1.55-3.49,3.13-5.2,4.73-.93.85-1.85,1.72-2.76,2.59-.86.82-1.71,1.64-2.57,2.47-.87.86-1.75,1.72-2.61,2.58-.62.6-1.22,1.21-1.82,1.83-.7.7-1.39,1.41-2.07,2.12-.62.63-1.23,1.27-1.83,1.91-.71.74-1.41,1.48-2.09,2.22-.74.79-1.48,1.59-2.21,2.4-1.05,1.15-2.09,2.3-3.11,3.46-.9,1.01-1.78,2.02-2.66,3.05-.22.25-.44.51-.65.76-.63.73-1.25,1.46-1.87,2.2-1.29,1.53-2.56,3.08-3.81,4.64-.73.9-1.45,1.81-2.17,2.72-.12.15-.25.31-.36.46-.68.86-1.35,1.73-2.02,2.61-.75.97-1.49,1.95-2.22,2.93-.74.98-1.47,1.97-2.19,2.96v-189.1l39.02-78.37,15.8-31.74,19.43-39.02L319.12.07h103.34l104.82,210.51,19.43,39.02,28.27,56.77c-42.05,27.88-69.78,75.64-69.78,129.87Z"/>
    <polyline class="cls-2" points="140.05 884.63 140.05 1079.86 140.05 1080.56"/>
    <line class="cls-1" x1="147.91" y1="210.58" x2="147.91" y2=".56"/>
    <path class="cls-10" d="M179.07,504.9v223.43h-97.47c0-13.22.84-26.24,2.48-39.02.18-1.4.37-2.79.57-4.18,0-.05.01-.11.02-.16.07-.53.15-1.06.23-1.58.19-1.33.4-2.66.61-3.98.06-.39.12-.77.19-1.16.06-.39.13-.77.2-1.16.13-.78.27-1.55.4-2.32.28-1.62.58-3.23.9-4.83.27-1.39.54-2.78.83-4.17.29-1.39.59-2.77.9-4.15.1-.49.21-.97.33-1.45.33-1.48.68-2.95,1.04-4.42.14-.57.28-1.13.42-1.7.5-1.99,1.01-3.97,1.55-5.94.3-1.12.61-2.23.93-3.34.24-.86.49-1.72.74-2.57.15-.5.3-1,.45-1.5.17-.59.35-1.19.54-1.78.3-.96.6-1.92.9-2.87.33-1.06.67-2.12,1.02-3.17.16-.5.33-1.01.5-1.51.16-.5.33-1.01.51-1.51.2-.59.4-1.18.61-1.77.62-1.8,1.27-3.59,1.93-5.38.21-.56.42-1.13.63-1.69.44-1.18.89-2.35,1.35-3.52,1.01-2.6,2.06-5.18,3.15-7.74.53-1.27,1.07-2.54,1.62-3.8.01-.01.02-.02.02-.04.64-1.45,1.29-2.89,1.95-4.33.65-1.43,1.32-2.87,2-4.29.51-1.07,1.03-2.14,1.56-3.21,2.03-4.15,4.17-8.26,6.4-12.3,1.13-2.07,2.29-4.12,3.47-6.16.64-1.11,1.29-2.21,1.94-3.3.4-.67.8-1.35,1.22-2.02.2-.33.4-.67.61-1.01.2-.34.41-.67.62-1,.41-.66.83-1.33,1.24-1.99.41-.67.83-1.33,1.26-1.99s.85-1.32,1.28-1.97c.65-1.02,1.32-2.04,2.01-3.05.62-.95,1.26-1.89,1.9-2.82,1.76-2.59,3.57-5.15,5.42-7.67.72-.99,1.45-1.98,2.19-2.96.73-.98,1.47-1.96,2.22-2.93.67-.88,1.34-1.75,2.02-2.61.11-.15.24-.31.36-.46.72-.91,1.44-1.82,2.17-2.72,1.25-1.56,2.52-3.11,3.81-4.64.62-.74,1.24-1.47,1.87-2.2.21-.25.43-.51.65-.76.88-1.03,1.76-2.04,2.66-3.05,1.02-1.16,2.06-2.31,3.11-3.46.73-.81,1.47-1.61,2.21-2.4.68-.74,1.38-1.48,2.09-2.22.6-.64,1.21-1.28,1.83-1.91.68-.71,1.37-1.42,2.07-2.12.6-.62,1.2-1.23,1.82-1.83.86-.86,1.74-1.72,2.61-2.58.86-.83,1.71-1.65,2.57-2.47.91-.87,1.83-1.74,2.76-2.59Z"/>
    <polyline class="cls-2" points="179.07 934.43 179.07 1079.86 179.07 1080.56"/>
    <line class="cls-1" x1="186.93" y1="210.58" x2="186.93" y2=".56"/>
    <path class="cls-10" d="M2002.57,861.94c0,202.65-164.28,366.93-366.94,366.93-121.01,0-228.34-58.58-295.16-148.92h339.25l-162.26-325.87,12.82-25.75,19.43-39.02h370.29v-6.58l-52.28-105.02c19.13,15.64,36.67,33.18,52.28,52.32,51.62,63.21,82.57,143.94,82.57,231.91Z"/>
  </g>
</svg>