<?xml version="1.0" encoding="UTF-8"?>
<svg id="Capa_1" data-name="Capa 1" xmlns="http://www.w3.org/2000/svg" xmlns:xlink="http://www.w3.org/1999/xlink" viewBox="0 0 1920 1080">
  <defs>
    <style>
      .cls-1 {
        fill: #fffcf2;
      }

      .cls-2 {
        fill: #ccc5b9;
      }

      .cls-3 {
        fill: #403d39;
      }

      .cls-4, .cls-5 {
        fill: none;
      }

      .cls-6 {
        clip-path: url(#clippath-1);
      }

      .cls-7 {
        fill: #eb5e28;
      }

      .cls-8 {
        fill: #252422;
      }

      .cls-5 {
        stroke: #252422;
        stroke-miterlimit: 10;
      }

      .cls-9 {
        clip-path: url(#clippath);
      }
    </style>
    <clipPath id="clippath">
      <rect class="cls-4" x="-1940" width="1920" height="1080"/>
    </clipPath>
    <clipPath id="clippath-1">
      <rect class="cls-4" x="-.47" y=".1" width="1920.94" height="1079.81"/>
    </clipPath>
  </defs>
  <g class="cls-9">
    <line class="cls-5" x1="14.96" y1="818.62" x2="-20" y2="748.4"/>
    <line class="cls-5" x1="47.66" y1="818.62" x2="-20" y2="682.73"/>
    <path class="cls-2" d="M62.57,861.94c0,202.65-164.28,366.93-366.94,366.93-121.01,0-228.34-58.58-295.16-148.92h339.25l-162.26-325.87,12.82-25.75,19.43-39.02H-20v-6.58l-52.28-105.02c19.13,15.64,36.67,33.18,52.28,52.32,51.62,63.21,82.57,143.94,82.57,231.91Z"/>
  </g>
  <rect class="cls-1" width="1920" height="1080"/>
  <g class="cls-6">
    <g>
      <g>
        <g>
          <circle class="cls-7" cx="-30.46" cy="154.65" r="52.21"/>
          <path class="cls-3" d="M-30.47.1l-131.51,264.17H101.06S-30.47.1-30.47.1ZM-30.46,181.05c-28.83,0-52.21-23.37-52.21-52.21s23.37-52.21,52.21-52.21,52.21,23.37,52.21,52.21S-1.63,181.05-30.46,181.05Z"/>
          <polygon class="cls-8" points="-97.88 264.27 -30.46 128.84 36.96 264.27 -97.88 264.27"/>
        </g>
        <g>
          <circle class="cls-7" cx="130.22" cy="109.71" r="52.21"/>
          <path class="cls-3" d="M130.23,264.27L261.74.1H-1.3s131.53,264.17,131.53,264.17ZM130.22,83.31c28.83,0,52.21,23.37,52.21,52.21,0,28.83-23.37,52.21-52.21,52.21s-52.21-23.37-52.21-52.21,23.37-52.21,52.21-52.21Z"/>
          <polygon class="cls-8" points="197.65 .1 130.23 135.52 62.8 .1 197.65 .1"/>
        </g>
        <g>
          <circle class="cls-7" cx="-30.46" cy="398.62" r="52.21"/>
          <path class="cls-3" d="M-30.45,553.17L101.06,289H-161.98S-30.45,553.17-30.45,553.17ZM-30.46,372.22c28.83,0,52.21,23.37,52.21,52.21,0,28.83-23.37,52.21-52.21,52.21-28.83,0-52.21-23.37-52.21-52.21,0-28.83,23.37-52.21,52.21-52.21Z"/>
          <polygon class="cls-8" points="36.96 289 -30.46 424.43 -97.88 289 36.96 289"/>
        </g>
      </g>
      <g>
        <g>
          <circle class="cls-7" cx="291.74" cy="154.65" r="52.21"/>
          <path class="cls-3" d="M291.73.1l-131.51,264.17h263.05S291.73.1,291.73.1ZM291.74,181.05c-28.83,0-52.21-23.37-52.21-52.21s23.37-52.21,52.21-52.21,52.21,23.37,52.21,52.21-23.37,52.21-52.21,52.21Z"/>
          <polygon class="cls-8" points="224.31 264.27 291.73 128.84 359.16 264.27 224.31 264.27"/>
        </g>
        <g>
          <circle class="cls-7" cx="452.42" cy="109.71" r="52.21"/>
          <path class="cls-3" d="M452.43,264.27L583.94.1h-263.05s131.53,264.17,131.53,264.17ZM452.42,83.31c28.83,0,52.21,23.37,52.21,52.21,0,28.83-23.37,52.21-52.21,52.21-28.83,0-52.21-23.37-52.21-52.21s23.37-52.21,52.21-52.21Z"/>
          <polygon class="cls-8" points="519.84 .1 452.42 135.52 385 .1 519.84 .1"/>
        </g>
        <g>
          <circle class="cls-7" cx="131.05" cy="443.56" r="52.21"/>
          <path class="cls-3" d="M131.05,289L-.47,553.17h263.05s-131.53-264.17-131.53-264.17ZM131.05,469.96c-28.83,0-52.21-23.37-52.21-52.21s23.37-52.21,52.21-52.21,52.21,23.37,52.21,52.21-23.37,52.21-52.21,52.21Z"/>
          <polygon class="cls-8" points="63.63 553.17 131.05 417.75 198.48 553.17 63.63 553.17"/>
        </g>
        <g>
          <circle class="cls-7" cx="291.74" cy="398.62" r="52.21"/>
          <path class="cls-3" d="M291.75,553.17l131.51-264.17H160.21s131.53,264.17,131.53,264.17ZM291.74,372.22c28.83,0,52.21,23.37,52.21,52.21s-23.37,52.21-52.21,52.21c-28.83,0-52.21-23.37-52.21-52.21,0-28.83,23.37-52.21,52.21-52.21Z"/>
          <polygon class="cls-8" points="359.16 289 291.74 424.43 224.31 289 359.16 289"/>
        </g>
        <g>
          <circle class="cls-7" cx="613.1" cy="154.65" r="52.21"/>
          <path class="cls-3" d="M613.09.1l-131.51,264.17h263.05S613.09.1,613.09.1ZM613.1,181.05c-28.83,0-52.21-23.37-52.21-52.21s23.37-52.21,52.21-52.21,52.21,23.37,52.21,52.21-23.37,52.21-52.21,52.21Z"/>
          <polygon class="cls-8" points="545.68 264.27 613.1 128.84 680.52 264.27 545.68 264.27"/>
        </g>
        <g>
          <circle class="cls-7" cx="773.78" cy="109.71" r="52.21"/>
          <path class="cls-3" d="M773.79,264.27L905.31.1h-263.05s131.53,264.17,131.53,264.17ZM773.78,83.31c28.83,0,52.21,23.37,52.21,52.21,0,28.83-23.37,52.21-52.21,52.21s-52.21-23.37-52.21-52.21,23.37-52.21,52.21-52.21Z"/>
          <polygon class="cls-8" points="841.21 .1 773.79 135.52 706.36 .1 841.21 .1"/>
        </g>
        <g>
          <circle class="cls-7" cx="452.42" cy="443.56" r="52.21"/>
          <path class="cls-3" d="M452.41,289l-131.51,264.17h263.05s-131.53-264.17-131.53-264.17ZM452.42,469.96c-28.83,0-52.21-23.37-52.21-52.21s23.37-52.21,52.21-52.21,52.21,23.37,52.21,52.21-23.37,52.21-52.21,52.21Z"/>
          <polygon class="cls-8" points="385 553.17 452.41 417.75 519.84 553.17 385 553.17"/>
        </g>
        <g>
          <circle class="cls-7" cx="613.1" cy="398.62" r="52.21"/>
          <path class="cls-3" d="M613.11,553.17l131.51-264.17h-263.05s131.53,264.17,131.53,264.17ZM613.1,372.22c28.83,0,52.21,23.37,52.21,52.21,0,28.83-23.37,52.21-52.21,52.21-28.83,0-52.21-23.37-52.21-52.21,0-28.83,23.37-52.21,52.21-52.21Z"/>
          <polygon class="cls-8" points="680.52 289 613.11 424.43 545.68 289 680.52 289"/>
        </g>
      </g>
      <g>
        <g>
          <circle class="cls-7" cx="935.3" cy="154.65" r="52.21"/>
          <path class="cls-3" d="M935.29.1l-131.51,264.17h263.05S935.29.1,935.29.1ZM935.3,181.05c-28.83,0-52.21-23.37-52.21-52.21s23.37-52.21,52.21-52.21,52.21,23.37,52.21,52.21-23.37,52.21-52.21,52.21Z"/>
          <polygon class="cls-8" points="867.87 264.27 935.29 128.84 1002.72 264.27 867.87 264.27"/>
        </g>
        <g>
          <circle class="cls-7" cx="1095.98" cy="109.71" r="52.21"/>
          <path class="cls-3" d="M1095.99,264.27L1227.5.1h-263.05s131.53,264.17,131.53,264.17ZM1095.98,83.31c28.83,0,52.21,23.37,52.21,52.21,0,28.83-23.37,52.21-52.21,52.21-28.83,0-52.21-23.37-52.21-52.21s23.37-52.21,52.21-52.21Z"/>
          <polygon class="cls-8" points="1163.4 .1 1095.98 135.52 1028.56 .1 1163.4 .1"/>
        </g>
        <g>
          <circle class="cls-7" cx="774.61" cy="443.56" r="52.21"/>
          <path class="cls-3" d="M774.61,289l-131.51,264.17h263.05s-131.53-264.17-131.53-264.17ZM774.61,469.96c-28.83,0-52.21-23.37-52.21-52.21s23.37-52.21,52.21-52.21,52.21,23.37,52.21,52.21-23.37,52.21-52.21,52.21Z"/>
          <polygon class="cls-8" points="707.19 553.17 774.61 417.75 842.04 553.17 707.19 553.17"/>
        </g>
        <g>
          <circle class="cls-7" cx="935.3" cy="398.62" r="52.21"/>
          <path class="cls-3" d="M935.31,553.17l131.51-264.17h-263.05s131.53,264.17,131.53,264.17ZM935.3,372.22c28.83,0,52.21,23.37,52.21,52.21s-23.37,52.21-52.21,52.21c-28.83,0-52.21-23.37-52.21-52.21,0-28.83,23.37-52.21,52.21-52.21Z"/>
          <polygon class="cls-8" points="1002.72 289 935.3 424.43 867.87 289 1002.72 289"/>
        </g>
        <g>
          <circle class="cls-7" cx="1256.66" cy="154.65" r="52.21"/>
          <path class="cls-3" d="M1256.65.1l-131.51,264.17h263.05S1256.65.1,1256.65.1ZM1256.66,181.05c-28.83,0-52.21-23.37-52.21-52.21s23.37-52.21,52.21-52.21,52.21,23.37,52.21,52.21-23.37,52.21-52.21,52.21Z"/>
          <polygon class="cls-8" points="1189.24 264.27 1256.66 128.84 1324.08 264.27 1189.24 264.27"/>
        </g>
        <g>
          <circle class="cls-7" cx="1417.34" cy="109.71" r="52.21"/>
          <path class="cls-3" d="M1417.35,264.27L1548.87.1h-263.05s131.53,264.17,131.53,264.17ZM1417.34,83.31c28.83,0,52.21,23.37,52.21,52.21,0,28.83-23.37,52.21-52.21,52.21s-52.21-23.37-52.21-52.21,23.37-52.21,52.21-52.21Z"/>
          <polygon class="cls-8" points="1484.77 .1 1417.35 135.52 1349.92 .1 1484.77 .1"/>
        </g>
        <g>
          <circle class="cls-7" cx="1095.98" cy="443.56" r="52.21"/>
          <path class="cls-3" d="M1095.97,289l-131.51,264.17h263.05s-131.53-264.17-131.53-264.17ZM1095.98,469.96c-28.83,0-52.21-23.37-52.21-52.21s23.37-52.21,52.21-52.21,52.21,23.37,52.21,52.21-23.37,52.21-52.21,52.21Z"/>
          <polygon class="cls-8" points="1028.56 553.17 1095.97 417.75 1163.4 553.17 1028.56 553.17"/>
        </g>
        <g>
          <circle class="cls-7" cx="1256.66" cy="398.62" r="52.21"/>
          <path class="cls-3" d="M1256.67,553.17l131.51-264.17h-263.05s131.53,264.17,131.53,264.17ZM1256.66,372.22c28.83,0,52.21,23.37,52.21,52.21,0,28.83-23.37,52.21-52.21,52.21-28.83,0-52.21-23.37-52.21-52.21,0-28.83,23.37-52.21,52.21-52.21Z"/>
          <polygon class="cls-8" points="1324.08 289 1256.67 424.43 1189.24 289 1324.08 289"/>
        </g>
      </g>
      <g>
        <g>
          <circle class="cls-7" cx="1578.86" cy="154.65" r="52.21"/>
          <path class="cls-3" d="M1578.85.1l-131.51,264.17h263.05S1578.85.1,1578.85.1ZM1578.86,181.05c-28.83,0-52.21-23.37-52.21-52.21s23.37-52.21,52.21-52.21,52.21,23.37,52.21,52.21-23.37,52.21-52.21,52.21Z"/>
          <polygon class="cls-8" points="1511.43 264.27 1578.85 128.84 1646.28 264.27 1511.43 264.27"/>
        </g>
        <g>
          <circle class="cls-7" cx="1739.54" cy="109.71" r="52.21"/>
          <path class="cls-3" d="M1739.55,264.27L1871.06.1h-263.05s131.53,264.17,131.53,264.17ZM1739.54,83.31c28.83,0,52.21,23.37,52.21,52.21,0,28.83-23.37,52.21-52.21,52.21-28.83,0-52.21-23.37-52.21-52.21s23.37-52.21,52.21-52.21Z"/>
          <polygon class="cls-8" points="1806.96 .1 1739.54 135.52 1672.12 .1 1806.96 .1"/>
        </g>
        <g>
          <circle class="cls-7" cx="1418.18" cy="443.56" r="52.21"/>
          <path class="cls-3" d="M1418.17,289l-131.51,264.17h263.05s-131.53-264.17-131.53-264.17ZM1418.18,469.96c-28.83,0-52.21-23.37-52.21-52.21s23.37-52.21,52.21-52.21,52.21,23.37,52.21,52.21-23.37,52.21-52.21,52.21Z"/>
          <polygon class="cls-8" points="1350.75 553.17 1418.17 417.75 1485.6 553.17 1350.75 553.17"/>
        </g>
        <g>
          <circle class="cls-7" cx="1578.86" cy="398.62" r="52.21"/>
          <path class="cls-3" d="M1578.87,553.17l131.51-264.17h-263.05s131.53,264.17,131.53,264.17ZM1578.86,372.22c28.83,0,52.21,23.37,52.21,52.21s-23.37,52.21-52.21,52.21c-28.83,0-52.21-23.37-52.21-52.21,0-28.83,23.37-52.21,52.21-52.21Z"/>
          <polygon class="cls-8" points="1646.28 289 1578.86 424.43 1511.43 289 1646.28 289"/>
        </g>
        <g>
          <circle class="cls-7" cx="1900.22" cy="154.65" r="52.21"/>
          <path class="cls-3" d="M1900.21.1l-131.51,264.17h263.05S1900.21.1,1900.21.1ZM1900.22,181.05c-28.83,0-52.21-23.37-52.21-52.21s23.37-52.21,52.21-52.21,52.21,23.37,52.21,52.21-23.37,52.21-52.21,52.21Z"/>
          <polygon class="cls-8" points="1832.8 264.27 1900.22 128.84 1967.64 264.27 1832.8 264.27"/>
        </g>
        <g>
          <circle class="cls-7" cx="1739.54" cy="443.56" r="52.21"/>
          <path class="cls-3" d="M1739.53,289l-131.51,264.17h263.05s-131.53-264.17-131.53-264.17ZM1739.54,469.96c-28.83,0-52.21-23.37-52.21-52.21s23.37-52.21,52.21-52.21,52.21,23.37,52.21,52.21-23.37,52.21-52.21,52.21Z"/>
          <polygon class="cls-8" points="1672.12 553.17 1739.53 417.75 1806.96 553.17 1672.12 553.17"/>
        </g>
        <g>
          <circle class="cls-7" cx="1900.22" cy="398.62" r="52.21"/>
          <path class="cls-3" d="M1900.23,553.17l131.51-264.17h-263.05s131.53,264.17,131.53,264.17ZM1900.22,372.22c28.83,0,52.21,23.37,52.21,52.21,0,28.83-23.37,52.21-52.21,52.21-28.83,0-52.21-23.37-52.21-52.21,0-28.83,23.37-52.21,52.21-52.21Z"/>
          <polygon class="cls-8" points="1967.64 289 1900.23 424.43 1832.8 289 1967.64 289"/>
        </g>
      </g>
      <g>
        <g>
          <circle class="cls-7" cx="-30.46" cy="730.89" r="52.21"/>
          <path class="cls-3" d="M-30.47,576.34l-131.51,264.17H101.06S-30.47,576.34-30.47,576.34ZM-30.46,757.29c-28.83,0-52.21-23.37-52.21-52.21s23.37-52.21,52.21-52.21,52.21,23.37,52.21,52.21-23.37,52.21-52.21,52.21Z"/>
          <polygon class="cls-8" points="-97.88 840.51 -30.46 705.08 36.96 840.51 -97.88 840.51"/>
        </g>
        <g>
          <circle class="cls-7" cx="130.22" cy="685.95" r="52.21"/>
          <path class="cls-3" d="M130.23,840.51l131.51-264.17H-1.3s131.53,264.17,131.53,264.17ZM130.22,659.55c28.83,0,52.21,23.37,52.21,52.21,0,28.83-23.37,52.21-52.21,52.21s-52.21-23.37-52.21-52.21,23.37-52.21,52.21-52.21Z"/>
          <polygon class="cls-8" points="197.65 576.34 130.23 711.76 62.8 576.34 197.65 576.34"/>
        </g>
        <g>
          <circle class="cls-7" cx="-30.46" cy="974.86" r="52.21"/>
          <path class="cls-3" d="M-30.45,1129.41l131.51-264.17H-161.98S-30.45,1129.41-30.45,1129.41ZM-30.46,948.46c28.83,0,52.21,23.37,52.21,52.21,0,28.83-23.37,52.21-52.21,52.21-28.83,0-52.21-23.37-52.21-52.21,0-28.83,23.37-52.21,52.21-52.21Z"/>
          <polygon class="cls-8" points="36.96 865.24 -30.46 1000.67 -97.88 865.24 36.96 865.24"/>
        </g>
      </g>
      <g>
        <g>
          <circle class="cls-7" cx="291.74" cy="730.89" r="52.21"/>
          <path class="cls-3" d="M291.73,576.34l-131.51,264.17h263.05s-131.53-264.17-131.53-264.17ZM291.74,757.29c-28.83,0-52.21-23.37-52.21-52.21s23.37-52.21,52.21-52.21,52.21,23.37,52.21,52.21-23.37,52.21-52.21,52.21Z"/>
          <polygon class="cls-8" points="224.31 840.51 291.73 705.08 359.16 840.51 224.31 840.51"/>
        </g>
        <g>
          <circle class="cls-7" cx="452.42" cy="685.95" r="52.21"/>
          <path class="cls-3" d="M452.43,840.51l131.51-264.17h-263.05s131.53,264.17,131.53,264.17ZM452.42,659.55c28.83,0,52.21,23.37,52.21,52.21,0,28.83-23.37,52.21-52.21,52.21-28.83,0-52.21-23.37-52.21-52.21s23.37-52.21,52.21-52.21Z"/>
          <polygon class="cls-8" points="519.84 576.34 452.42 711.76 385 576.34 519.84 576.34"/>
        </g>
        <g>
          <circle class="cls-7" cx="131.05" cy="1019.8" r="52.21"/>
          <path class="cls-3" d="M131.05,865.24L-.47,1129.41h263.05s-131.53-264.17-131.53-264.17ZM131.05,1046.2c-28.83,0-52.21-23.37-52.21-52.21s23.37-52.21,52.21-52.21,52.21,23.37,52.21,52.21-23.37,52.21-52.21,52.21Z"/>
          <polygon class="cls-8" points="63.63 1129.41 131.05 993.99 198.48 1129.41 63.63 1129.41"/>
        </g>
        <g>
          <circle class="cls-7" cx="291.74" cy="974.86" r="52.21"/>
          <path class="cls-3" d="M291.75,1129.41l131.51-264.17H160.21s131.53,264.17,131.53,264.17ZM291.74,948.46c28.83,0,52.21,23.37,52.21,52.21s-23.37,52.21-52.21,52.21c-28.83,0-52.21-23.37-52.21-52.21,0-28.83,23.37-52.21,52.21-52.21Z"/>
          <polygon class="cls-8" points="359.16 865.24 291.74 1000.67 224.31 865.24 359.16 865.24"/>
        </g>
        <g>
          <circle class="cls-7" cx="613.1" cy="730.89" r="52.21"/>
          <path class="cls-3" d="M613.09,576.34l-131.51,264.17h263.05s-131.53-264.17-131.53-264.17ZM613.1,757.29c-28.83,0-52.21-23.37-52.21-52.21s23.37-52.21,52.21-52.21,52.21,23.37,52.21,52.21-23.37,52.21-52.21,52.21Z"/>
          <polygon class="cls-8" points="545.68 840.51 613.1 705.08 680.52 840.51 545.68 840.51"/>
        </g>
        <g>
          <circle class="cls-7" cx="773.78" cy="685.95" r="52.21"/>
          <path class="cls-3" d="M773.79,840.51l131.51-264.17h-263.05s131.53,264.17,131.53,264.17ZM773.78,659.55c28.83,0,52.21,23.37,52.21,52.21,0,28.83-23.37,52.21-52.21,52.21s-52.21-23.37-52.21-52.21,23.37-52.21,52.21-52.21Z"/>
          <polygon class="cls-8" points="841.21 576.34 773.79 711.76 706.36 576.34 841.21 576.34"/>
        </g>
        <g>
          <circle class="cls-7" cx="452.42" cy="1019.8" r="52.21"/>
          <path class="cls-3" d="M452.41,865.24l-131.51,264.17h263.05s-131.53-264.17-131.53-264.17ZM452.42,1046.2c-28.83,0-52.21-23.37-52.21-52.21s23.37-52.21,52.21-52.21,52.21,23.37,52.21,52.21-23.37,52.21-52.21,52.21Z"/>
          <polygon class="cls-8" points="385 1129.41 452.41 993.99 519.84 1129.41 385 1129.41"/>
        </g>
        <g>
          <circle class="cls-7" cx="613.1" cy="974.86" r="52.21"/>
          <path class="cls-3" d="M613.11,1129.41l131.51-264.17h-263.05s131.53,264.17,131.53,264.17ZM613.1,948.46c28.83,0,52.21,23.37,52.21,52.21,0,28.83-23.37,52.21-52.21,52.21-28.83,0-52.21-23.37-52.21-52.21,0-28.83,23.37-52.21,52.21-52.21Z"/>
          <polygon class="cls-8" points="680.52 865.24 613.11 1000.67 545.68 865.24 680.52 865.24"/>
        </g>
      </g>
      <g>
        <g>
          <circle class="cls-7" cx="935.3" cy="730.89" r="52.21"/>
          <path class="cls-3" d="M935.29,576.34l-131.51,264.17h263.05s-131.53-264.17-131.53-264.17ZM935.3,757.29c-28.83,0-52.21-23.37-52.21-52.21s23.37-52.21,52.21-52.21,52.21,23.37,52.21,52.21-23.37,52.21-52.21,52.21Z"/>
          <polygon class="cls-8" points="867.87 840.51 935.29 705.08 1002.72 840.51 867.87 840.51"/>
        </g>
        <g>
          <circle class="cls-7" cx="1095.98" cy="685.95" r="52.21"/>
          <path class="cls-3" d="M1095.99,840.51l131.51-264.17h-263.05s131.53,264.17,131.53,264.17ZM1095.98,659.55c28.83,0,52.21,23.37,52.21,52.21,0,28.83-23.37,52.21-52.21,52.21-28.83,0-52.21-23.37-52.21-52.21s23.37-52.21,52.21-52.21Z"/>
          <polygon class="cls-8" points="1163.4 576.34 1095.98 711.76 1028.56 576.34 1163.4 576.34"/>
        </g>
        <g>
          <circle class="cls-7" cx="774.61" cy="1019.8" r="52.21"/>
          <path class="cls-3" d="M774.61,865.24l-131.51,264.17h263.05s-131.53-264.17-131.53-264.17ZM774.61,1046.2c-28.83,0-52.21-23.37-52.21-52.21s23.37-52.21,52.21-52.21,52.21,23.37,52.21,52.21-23.37,52.21-52.21,52.21Z"/>
          <polygon class="cls-8" points="707.19 1129.41 774.61 993.99 842.04 1129.41 707.19 1129.41"/>
        </g>
        <g>
          <circle class="cls-7" cx="935.3" cy="974.86" r="52.21"/>
          <path class="cls-3" d="M935.31,1129.41l131.51-264.17h-263.05s131.53,264.17,131.53,264.17ZM935.3,948.46c28.83,0,52.21,23.37,52.21,52.21s-23.37,52.21-52.21,52.21c-28.83,0-52.21-23.37-52.21-52.21,0-28.83,23.37-52.21,52.21-52.21Z"/>
          <polygon class="cls-8" points="1002.72 865.24 935.3 1000.67 867.87 865.24 1002.72 865.24"/>
        </g>
        <g>
          <circle class="cls-7" cx="1256.66" cy="730.89" r="52.21"/>
          <path class="cls-3" d="M1256.65,576.34l-131.51,264.17h263.05s-131.53-264.17-131.53-264.17ZM1256.66,757.29c-28.83,0-52.21-23.37-52.21-52.21s23.37-52.21,52.21-52.21,52.21,23.37,52.21,52.21-23.37,52.21-52.21,52.21Z"/>
          <polygon class="cls-8" points="1189.24 840.51 1256.66 705.08 1324.08 840.51 1189.24 840.51"/>
        </g>
        <g>
          <circle class="cls-7" cx="1417.34" cy="685.95" r="52.21"/>
          <path class="cls-3" d="M1417.35,840.51l131.51-264.17h-263.05s131.53,264.17,131.53,264.17ZM1417.34,659.55c28.83,0,52.21,23.37,52.21,52.21,0,28.83-23.37,52.21-52.21,52.21s-52.21-23.37-52.21-52.21,23.37-52.21,52.21-52.21Z"/>
          <polygon class="cls-8" points="1484.77 576.34 1417.35 711.76 1349.92 576.34 1484.77 576.34"/>
        </g>
        <g>
          <circle class="cls-7" cx="1095.98" cy="1019.8" r="52.21"/>
          <path class="cls-3" d="M1095.97,865.24l-131.51,264.17h263.05s-131.53-264.17-131.53-264.17ZM1095.98,1046.2c-28.83,0-52.21-23.37-52.21-52.21s23.37-52.21,52.21-52.21,52.21,23.37,52.21,52.21-23.37,52.21-52.21,52.21Z"/>
          <polygon class="cls-8" points="1028.56 1129.41 1095.97 993.99 1163.4 1129.41 1028.56 1129.41"/>
        </g>
        <g>
          <circle class="cls-7" cx="1256.66" cy="974.86" r="52.21"/>
          <path class="cls-3" d="M1256.67,1129.41l131.51-264.17h-263.05s131.53,264.17,131.53,264.17ZM1256.66,948.46c28.83,0,52.21,23.37,52.21,52.21,0,28.83-23.37,52.21-52.21,52.21-28.83,0-52.21-23.37-52.21-52.21,0-28.83,23.37-52.21,52.21-52.21Z"/>
          <polygon class="cls-8" points="1324.08 865.24 1256.67 1000.67 1189.24 865.24 1324.08 865.24"/>
        </g>
      </g>
      <g>
        <g>
          <circle class="cls-7" cx="1578.86" cy="730.89" r="52.21"/>
          <path class="cls-3" d="M1578.85,576.34l-131.51,264.17h263.05s-131.53-264.17-131.53-264.17ZM1578.86,757.29c-28.83,0-52.21-23.37-52.21-52.21s23.37-52.21,52.21-52.21,52.21,23.37,52.21,52.21-23.37,52.21-52.21,52.21Z"/>
          <polygon class="cls-8" points="1511.43 840.51 1578.85 705.08 1646.28 840.51 1511.43 840.51"/>
        </g>
        <g>
          <circle class="cls-7" cx="1739.54" cy="685.95" r="52.21"/>
          <path class="cls-3" d="M1739.55,840.51l131.51-264.17h-263.05s131.53,264.17,131.53,264.17ZM1739.54,659.55c28.83,0,52.21,23.37,52.21,52.21,0,28.83-23.37,52.21-52.21,52.21-28.83,0-52.21-23.37-52.21-52.21s23.37-52.21,52.21-52.21Z"/>
          <polygon class="cls-8" points="1806.96 576.34 1739.54 711.76 1672.12 576.34 1806.96 576.34"/>
        </g>
        <g>
          <circle class="cls-7" cx="1418.18" cy="1019.8" r="52.21"/>
          <path class="cls-3" d="M1418.17,865.24l-131.51,264.17h263.05s-131.53-264.17-131.53-264.17ZM1418.18,1046.2c-28.83,0-52.21-23.37-52.21-52.21s23.37-52.21,52.21-52.21,52.21,23.37,52.21,52.21-23.37,52.21-52.21,52.21Z"/>
          <polygon class="cls-8" points="1350.75 1129.41 1418.17 993.99 1485.6 1129.41 1350.75 1129.41"/>
        </g>
        <g>
          <circle class="cls-7" cx="1578.86" cy="974.86" r="52.21"/>
          <path class="cls-3" d="M1578.87,1129.41l131.51-264.17h-263.05s131.53,264.17,131.53,264.17ZM1578.86,948.46c28.83,0,52.21,23.37,52.21,52.21s-23.37,52.21-52.21,52.21c-28.83,0-52.21-23.37-52.21-52.21,0-28.83,23.37-52.21,52.21-52.21Z"/>
          <polygon class="cls-8" points="1646.28 865.24 1578.86 1000.67 1511.43 865.24 1646.28 865.24"/>
        </g>
        <g>
          <circle class="cls-7" cx="1900.22" cy="730.89" r="52.21"/>
          <path class="cls-3" d="M1900.21,576.34l-131.51,264.17h263.05s-131.53-264.17-131.53-264.17ZM1900.22,757.29c-28.83,0-52.21-23.37-52.21-52.21s23.37-52.21,52.21-52.21,52.21,23.37,52.21,52.21-23.37,52.21-52.21,52.21Z"/>
          <polygon class="cls-8" points="1832.8 840.51 1900.22 705.08 1967.64 840.51 1832.8 840.51"/>
        </g>
        <g>
          <circle class="cls-7" cx="1739.54" cy="1019.8" r="52.21"/>
          <path class="cls-3" d="M1739.53,865.24l-131.51,264.17h263.05s-131.53-264.17-131.53-264.17ZM1739.54,1046.2c-28.83,0-52.21-23.37-52.21-52.21s23.37-52.21,52.21-52.21,52.21,23.37,52.21,52.21-23.37,52.21-52.21,52.21Z"/>
          <polygon class="cls-8" points="1672.12 1129.41 1739.53 993.99 1806.96 1129.41 1672.12 1129.41"/>
        </g>
        <g>
          <circle class="cls-7" cx="1900.22" cy="974.86" r="52.21"/>
          <path class="cls-3" d="M1900.23,1129.41l131.51-264.17h-263.05s131.53,264.17,131.53,264.17ZM1900.22,948.46c28.83,0,52.21,23.37,52.21,52.21,0,28.83-23.37,52.21-52.21,52.21-28.83,0-52.21-23.37-52.21-52.21,0-28.83,23.37-52.21,52.21-52.21Z"/>
          <polygon class="cls-8" points="1967.64 865.24 1900.23 1000.67 1832.8 865.24 1967.64 865.24"/>
        </g>
      </g>
    </g>
  </g>
</svg>